<?xml version="1.0" standalone="no"?>
<!DOCTYPE svg PUBLIC "-//W3C//DTD SVG 20010904//EN"
 "http://www.w3.org/TR/2001/REC-SVG-20010904/DTD/svg10.dtd">
<svg version="1.0" xmlns="http://www.w3.org/2000/svg"
 width="512.000000pt" height="512.000000pt" viewBox="0 0 512.000000 512.000000"
 preserveAspectRatio="xMidYMid meet">
<metadata>
Created by potrace 1.11, written by Peter Selinger 2001-2013
</metadata>
<g transform="translate(0.000000,512.000000) scale(0.100000,-0.100000)"
fill="#000000" stroke="none">
<path d="M2756 4560 c-35 -65 -44 -74 -112 -113 -40 -23 -74 -45 -74 -48 0 -3
10 -11 23 -18 126 -66 126 -66 189 -188 6 -13 15 -23 19 -23 4 0 21 28 39 63
43 82 42 81 121 124 38 20 69 40 69 43 0 3 -33 23 -72 45 -67 37 -76 46 -113
113 -22 39 -42 72 -45 72 -3 0 -23 -32 -44 -70z"/>
<path d="M3365 4104 c-48 -87 -78 -130 -95 -138 -43 -19 -220 -121 -220 -126
0 -3 56 -36 124 -74 l125 -67 67 -125 c38 -68 71 -124 74 -124 3 0 36 56 74
125 l69 125 124 67 c67 37 123 71 123 75 0 3 -9 10 -20 13 -11 3 -26 12 -33
18 -7 7 -53 33 -102 58 l-90 47 -70 126 c-38 69 -72 126 -75 126 -3 0 -37 -57
-75 -126z"/>
<path d="M2713 3378 c-6 -13 -151 -448 -323 -968 -171 -520 -315 -954 -320
-965 -12 -28 -170 -509 -170 -518 0 -4 71 -7 158 -7 l158 0 103 312 c57 172
108 319 114 326 5 6 7 12 4 12 -3 0 110 341 249 758 140 416 257 766 259 777
3 11 25 78 50 150 25 71 45 133 45 137 0 4 -71 8 -158 8 -155 0 -159 -1 -169
-22z"/>
<path d="M1595 3065 c-44 -24 -127 -69 -185 -100 -58 -31 -136 -74 -175 -95
-38 -21 -92 -50 -120 -65 -27 -15 -77 -42 -110 -60 -33 -18 -82 -45 -110 -60
-27 -16 -81 -45 -120 -65 -38 -20 -95 -51 -125 -67 -156 -86 -243 -133 -247
-133 -2 0 -21 -11 -43 -25 l-40 -25 0 -155 c0 -100 4 -155 10 -155 6 0 45 -20
88 -43 42 -24 111 -62 152 -84 93 -50 508 -275 535 -291 11 -6 72 -39 135 -73
63 -34 135 -73 160 -87 25 -14 74 -40 110 -59 36 -19 89 -48 118 -65 l52 -29
0 193 0 193 -123 63 c-67 34 -225 116 -352 182 -126 66 -290 150 -362 187 -73
38 -133 70 -133 73 0 3 100 57 223 120 561 290 729 379 740 389 4 4 6 91 5
193 l-3 185 -80 -42z"/>
<path d="M3322 2919 l3 -193 80 -42 c44 -23 125 -65 180 -93 55 -28 177 -91
270 -140 94 -50 229 -121 302 -158 101 -52 129 -71 120 -79 -7 -6 -106 -60
-222 -119 -115 -59 -241 -124 -280 -145 -93 -50 -404 -211 -432 -224 -23 -11
-23 -14 -23 -204 l0 -192 178 91 c394 203 529 272 787 404 149 76 298 153 333
172 35 18 69 30 75 27 7 -4 8 -3 4 1 -4 5 7 16 25 25 l33 15 3 155 2 155 -62
31 c-62 30 -413 209 -713 364 -82 43 -266 137 -408 209 l-257 133 2 -193z"/>
</g>
</svg>
